<svg xmlns="http://www.w3.org/2000/svg" width="321.296" height="610.997"><path fill="none" pointer-events="none" d="M0 0h321.296v610.997H0z"/><path d="M291.288 509.125l.121 75.661c.017 10.446-8.439 18.929-18.884 18.945l-170.236.274c-10.447.016-18.928-8.439-18.945-18.885l-.121-75.66c-.017-10.447 8.438-18.929 18.884-18.946l170.235-.273c10.446-.017 18.929 8.439 18.946 18.884z" fill="#00c3ff"/><path d="M54.116 52.69l.278 173.09-9.458.015c-20.894.033-37.802 16.997-37.769 37.89l.06 37.687a132.409 132.409 0 0020.239 70.142l74.641 119 170.235-.273 20.254-74.74a226.98 226.98 0 007.903-59.735l-.2-123.946c-.028-17.93-13.56-33.843-31.468-34.714-10.167-.495-19.312 3.656-25.693 10.44-1.91-16.492-15.772-29.33-32.771-29.303-9.489.015-17.98 4.074-24.005 10.48-1.91-16.492-15.773-29.331-32.771-29.304-18.282.03-33.078 14.874-33.048 33.154l-.228-141.863c-.03-18.87-15.847-34.028-34.935-32.998-17.896.966-31.293 17.054-31.264 34.978z" fill="#f0c087"/><path d="M247.097 511.446c-7.267-2.647-15.529-3.161-24.282-.312-12.74 4.148-22.722 15.12-25.293 28.271-2.934 15.011 3.01 28.858 13.51 37.233 3.417 2.726 1.29 8.276-3.08 8.283l-124.608.2c.017 10.445 8.498 18.9 18.945 18.884l170.236-.274c10.447-.016 18.9-8.5 18.884-18.945l-.121-75.66c-.017-10.447-8.5-18.902-18.946-18.885l-18.915.03.027 16.795c.006 3.303-3.254 5.51-6.357 4.38z" fill="#00aaf0"/><path d="M234.569 528.133a18.915 18.915 0 0118.945 18.884 18.915 18.915 0 01-18.885 18.945 18.915 18.915 0 01-18.945-18.884 18.915 18.915 0 0118.885-18.945z" fill="#e4eaf8"/><path d="M244.046 537.575c.017 10.446-8.439 18.928-18.885 18.945-2.771.005-5.386-.62-7.76-1.688 2.978 6.563 9.559 11.143 17.233 11.13 10.446-.016 18.901-8.5 18.885-18.945-.013-7.674-4.613-14.242-11.186-17.196 1.074 2.369 1.708 4.981 1.713 7.754z" fill="#d5dced"/><g fill="#e6af78"><path d="M215.096 178.68l.083 51.571c.013 7.835 6.374 14.176 14.209 14.164s14.176-6.375 14.163-14.21l-.037-22.986c-.115.12-.263.205-.377.326-1.726-14.922-13.272-26.75-28.04-28.865zM158.321 159.856l.098 61.029c.013 7.834 6.374 14.176 14.21 14.163s14.175-6.374 14.162-14.209l-.052-32.447c-.116.12-.263.208-.377.33-1.726-14.923-13.273-26.75-28.04-28.866zM92.217 220.99c.013 7.835 6.373 14.176 14.209 14.163 7.835-.012 14.176-6.374 14.163-14.209l-.273-170.24c-.03-16.67-12.388-30.395-28.425-32.669l.326 202.955zM44.936 225.795c-6.926.01-13.328 2.017-18.906 5.276l.075 46.77c.012 7.835 6.373 14.176 14.209 14.163 7.834-.012 14.176-6.374 14.163-14.209l-.083-52.016-9.458.016zM272.127 355.812a226.961 226.961 0 01-7.902 59.733l-1.901 7.014c-7.81 28.814-33.938 48.839-63.792 48.887l-108.278.173 11.853 18.896 170.235-.273 20.254-74.74a227.005 227.005 0 007.903-59.738l-.2-123.943c-.026-16.88-12.08-31.805-28.427-34.243l.255 158.234z"/></g></svg>